<svg width="48" height="48" viewBox="0 0 48 48" fill="none" xmlns="http://www.w3.org/2000/svg">
<g id="vuesax/bold/location-tick">
<path id="Vector" d="M41.24 17.4C39.16 8.14 31.08 4 24 4C24 4 24 4 23.98 4C16.92 4 8.85999 8.14 6.75999 17.38C4.39999 27.7 10.72 36.44 16.44 41.96C18.56 44 21.28 45.02 24 45.02C26.72 45.02 29.44 44 31.54 41.96C37.26 36.44 43.58 27.72 41.24 17.4ZM30.56 19.06L22.56 27.06C22.26 27.36 21.88 27.5 21.5 27.5C21.12 27.5 20.74 27.36 20.44 27.06L17.44 24.06C16.86 23.48 16.86 22.52 17.44 21.94C18.02 21.36 18.98 21.36 19.56 21.94L21.5 23.88L28.44 16.94C29.02 16.36 29.98 16.36 30.56 16.94C31.14 17.52 31.14 18.48 30.56 19.06Z" fill="#CB1B1B"/>
</g>
</svg>
